:SAMPLES-PER-SECOND 30
:FULLY-SPECIFIED
:DEGREES
612
root  -64.4092 39.6818 1.93747 -110.646 -83.2195 104.208
RightUpLeg  -13.0175 -8.71854 -7.17027
RightLeg  -2.48745 -1.2069 0.449454
RightFoot  0.477033 -0.763737 7.76846
RightToes  -2.9104e-010 0 -3.6325e-017
Spine  5.00115 1.30615 -3.16049
Spine1  4.51834 1.70671 -2.45099
HEad  -14.0753 -8.87374 -1.99268
LeftShoulder1  -0.824149 5.5241 -34.6227
LeftArm  -7.79963 6.79812 -45.5096
LeftForeArm  25.6243 -13.2984 -5.5311
LeftHand  -0.00122718 6.88808 2.03471
RightShoulder  -1.30954 -6.81066 33.0377
RightArm  0.961368 -1.35249 47.3557
RightForeArm  -0.373309 -0.112511 2.52746
RightHand  -0.1853 2.77295 -2.86116
LeftUpLeg  8.03334 6.42676 -6.38947
LeftLeg  12.4363 4.95175 -0.59576
LeftFoot  -14.1214 0.191883 4.43847
LeftToes  -3.37426e-010 -1.91496e-010 5.23909e-011
613
root  -65.4592 39.6153 1.90984 -117.141 -83.3337 109.812
RightUpLeg  -13.675 -8.50498 -6.26726
RightLeg  2.20578 1.05962 0.372017
RightFoot  7.66377 -0.2448 1.79187
RightToes  -2.9104e-010 0 -3.6325e-017
Spine  5.2344 1.43536 -0.713214
Spine1  5.48445 2.04433 -2.96342
HEad  -13.0755 -11.1947 -3.53977
LeftShoulder1  -0.92307 5.732 -35.2325
LeftArm  -0.599999 7.56235 -48.1528
LeftForeArm  28.3534 -14.6146 -6.61977
LeftHand  -0.121445 8.10341 -1.31356
RightShoulder  -1.51667 -7.1995 34.4975
RightArm  5.55654 -3.75548 49.7582
RightForeArm  -3.48622 2.82065 4.8805
RightHand  -0.139611 2.43762 -2.15883
LeftUpLeg  11.1761 6.59175 -6.13057
LeftLeg  11.6881 5.39753 0.0255748
LeftFoot  -15.3133 0.214402 3.50442
LeftToes  -3.37426e-010 -1.91496e-010 5.23909e-011
614
root  -66.533 39.5086 1.85017 -120.629 -84.2798 112.667
RightUpLeg  -14.3604 -8.02268 -5.19958
RightLeg  6.87416 2.45843 0.220534
RightFoot  12.8084 0.309179 -1.13453
RightToes  -2.9104e-010 0 -3.6325e-017
Spine  5.34152 1.17086 1.52955
Spine1  5.93555 1.83653 -2.69281
HEad  -13.1315 -13.3562 -5.19348
LeftShoulder1  -0.849566 5.55867 -35.1458
LeftArm  5.53064 7.96629 -47.4668
LeftForeArm  31.603 -18.5326 -5.18541
LeftHand  -0.336199 8.83711 -9.34249
RightShoulder  -1.58643 -7.34414 34.756
RightArm  5.54812 -5.28253 47.1509
RightForeArm  -13.4783 4.84379 5.20902
RightHand  0.0737782 1.59739 1.00711
LeftUpLeg  13.2416 6.8326 -5.08962
LeftLeg  12.6326 5.19432 0.920545
LeftFoot  -16.7844 0.243804 3.01784
LeftToes  -3.37426e-010 -1.91496e-010 5.23909e-011
615
root  -67.6618 39.4252 1.81329 -127.998 -86.1283 120.074
RightUpLeg  -15.4147 -8.43146 -3.66779
RightLeg  12.817 2.32681 0.789922
RightFoot  9.50069 0.53391 -2.53922
RightToes  -2.9104e-010 0 -3.6325e-017
Spine  4.62918 0.373965 4.62142
Spine1  5.66653 1.11731 -2.90793
HEad  -13.3442 -14.432 -5.23588
LeftShoulder1  -0.807898 5.49805 -34.3288
LeftArm  10.7357 7.42894 -45.9876
LeftForeArm  25.3448 -18.2228 -5.97764
LeftHand  -0.124114 7.91017 -3.81931
RightShoulder  -1.49073 -7.18386 33.9749
RightArm  7.29459 -5.57062 44.8011
RightForeArm  -1.18481 7.95723 5.19052
RightHand  0.096682 2.94948 1.18474
LeftUpLeg  13.4616 6.61364 -3.0628
LeftLeg  16.0068 4.70869 1.78576
LeftFoot  -18.2548 0.196526 1.48284
LeftToes  -3.37426e-010 -1.91496e-010 5.23909e-011
616
root  -68.7085 39.4124 1.71301 -143.234 -87.5271 135.242
RightUpLeg  -15.0339 -8.7688 -2.1135
RightLeg  15.7751 2.33285 0.89526
RightFoot  7.62446 0.63042 -3.45014
RightToes  -2.9104e-010 0 -3.6325e-017
Spine  3.68568 -0.0143693 6.53165
Spine1  6.39784 0.648996 -2.05816
HEad  -14.2423 -15.5816 -3.91115
LeftShoulder1  -0.684943 5.20135 -34.1797
LeftArm  8.3501 6.26227 -44.7318
LeftForeArm  29.8216 -16.4238 -6.85853
LeftHand  -0.0494046 8.06216 0.167151
RightShoulder  -1.46037 -7.1467 33.562
RightArm  13.3128 -3.21356 41.98
RightForeArm  11.651 9.41993 6.60901
RightHand  -0.0174267 5.08061 -0.540515
LeftUpLeg  12.6257 6.19678 -0.790784
LeftLeg  21.3338 3.39615 1.79526
LeftFoot  -18.4009 -0.0219252 -2.20171
LeftToes  -3.37426e-010 -1.91496e-010 5.23909e-011
617
root  -69.5976 39.4282 1.53249 -155.925 -88.5093 148.06
RightUpLeg  -14.4908 -8.58252 -1.33901
RightLeg  17.6754 1.30136 0.649118
RightFoot  5.12627 0.503478 -3.22031
RightToes  -2.9104e-010 0 -3.6325e-017
Spine  3.70545 -0.393743 6.27256
Spine1  5.97966 -0.0221479 0.368708
HEad  -15.5266 -17.9185 -0.90556
LeftShoulder1  -0.639104 5.10706 -33.6982
LeftArm  1.96874 4.96575 -43.8838
LeftForeArm  35.464 -13.155 -7.91985
LeftHand  0.0174407 7.11715 3.20646
RightShoulder  -1.36448 -6.9648 32.8839
RightArm  19.5742 -0.836922 39.9145
RightForeArm  22.0633 10.3231 7.87472
RightHand  -0.143901 4.14135 -2.01984
LeftUpLeg  10.065 6.13296 1.16121
LeftLeg  28.5262 1.09929 0.961088
LeftFoot  -16.2575 -0.175521 -6.52208
LeftToes  -3.37426e-010 -1.91496e-010 5.23909e-011
618
root  -70.3833 39.4371 1.35784 -153.232 -89.8513 146.063
RightUpLeg  -14.3414 -8.85217 -0.402711
RightLeg  18.85 0.680938 0.700101
RightFoot  3.01306 0.377973 -2.85068
RightToes  -2.9104e-010 0 -3.6325e-017
Spine  3.41558 -0.670363 6.49143
Spine1  5.71664 -0.462031 2.10568
HEad  -17.9605 -21.1022 3.4624
LeftShoulder1  -0.570353 4.96689 -32.8281
LeftArm  -2.70228 3.81005 -43.5203
LeftForeArm  34.9751 -11.6023 -7.65567
LeftHand  -0.0321541 8.10957 0.688687
RightShoulder  -1.20473 -6.63668 31.9361
RightArm  21.7609 0.834072 38.4944
RightForeArm  23.9156 10.0904 8.45819
RightHand  -0.168093 3.92017 -2.34884
LeftUpLeg  5.30307 6.59576 3.53696
LeftLeg  37.4215 -1.03611 -0.482928
LeftFoot  -11.0971 0.0894169 -9.26835
LeftToes  -3.37426e-010 -1.91496e-010 5.23909e-011
619
root  -71.1073 39.4446 1.26746 101.771 -88.5081 -109.092
RightUpLeg  -13.133 -9.10964 0.657042
RightLeg  19.468 0.482321 1.07393
RightFoot  1.66258 0.386584 -3.27433
RightToes  -2.9104e-010 0 -3.6325e-017
Spine  3.58991 -0.784239 9.02843
Spine1  6.45473 -0.190271 1.42982
HEad  -20.7385 -24.6158 8.31478
LeftShoulder1  -0.484931 4.76921 -32.1862
LeftArm  -4.27277 1.75128 -42.9523
LeftForeArm  32.8089 -11.1177 -7.38271
LeftHand  -0.112124 10.0138 -1.45339
RightShoulder  -1.12365 -6.45891 31.4531
RightArm  19.0743 2.71329 36.9868
RightForeArm  21.7099 9.06996 8.16395
RightHand  -0.051445 3.2477 -0.927921
LeftUpLeg  0.862002 6.84228 5.8142
LeftLeg  46.0464 -1.46781 -1.17115
LeftFoot  -3.22751 0.632325 -9.10904
LeftToes  -3.37426e-010 -1.91496e-010 5.23909e-011
620
root  -71.7487 39.4102 1.2119 87.5401 -87.6483 -94.6999
RightUpLeg  -12.5814 -9.30656 1.38475
RightLeg  20.3301 0.319758 1.43862
RightFoot  0.117414 0.327372 -3.26455
RightToes  -2.9104e-010 0 -3.6325e-017
Spine  3.75335 -0.895749 9.96766
Spine1  6.91671 -0.295552 2.26843
HEad  -23.5203 -28.0781 13.2253
LeftShoulder1  -0.445339 4.68349 -31.6134
LeftArm  -5.06485 -0.293559 -42.7809
LeftForeArm  31.2894 -10.4043 -7.40123
LeftHand  -0.145409 10.2027 -2.06756
RightShoulder  -0.911084 -5.97974 30.218
RightArm  15.4364 4.85758 36.2538
RightForeArm  17.0555 7.13378 7.65585
RightHand  0.0287295 2.68005 0.199744
LeftUpLeg  -3.88357 6.71376 6.98744
LeftLeg  53.2152 -0.535692 -0.308223
LeftFoot  2.79841 0.796274 -6.4325
LeftToes  -3.37426e-010 -1.91496e-010 5.23909e-011
621
root  -72.3426 39.4572 1.21427 101.48 -87.206 -108.34
RightUpLeg  -12.1952 -9.176 1.73241
RightLeg  20.8351 0.757242 1.59809
RightFoot  -0.528019 0.371082 -3.92113
RightToes  -2.9104e-010 0 -3.6325e-017
Spine  4.02464 -0.909555 10.2641
Spine1  6.95821 -0.418725 2.89646
HEad  -25.3558 -30.8863 17.055
LeftShoulder1  -0.378238 4.51581 -31.2257
LeftArm  -4.54589 -1.48553 -42.7657
LeftForeArm  31.1577 -10.7451 -7.45048
LeftHand  -0.147376 10.2645 -2.04575
RightShoulder  -0.826835 -5.79041 29.5494
RightArm  13.4177 8.6589 35.5387
RightForeArm  13.6371 4.8329 7.27689
RightHand  0.0704929 2.64856 0.813104
LeftUpLeg  -7.83636 6.31632 7.19247
LeftLeg  57.6914 -0.137821 0.275514
LeftFoot  0.928196 0.643908 -6.03091
LeftToes  -3.37426e-010 -1.91496e-010 5.23909e-011
622
root  -72.9208 39.5777 1.26227 128.072 -86.9024 -134.574
RightUpLeg  -11.439 -8.59251 1.36212
RightLeg  20.3322 1.58912 1.71239
RightFoot  -1.7128 0.203039 -2.56323
RightToes  -2.9104e-010 0 -3.6325e-017
Spine  4.22999 -0.893263 9.67609
Spine1  6.72584 -0.657472 3.68502
HEad  -26.2283 -33.5807 19.6495
LeftShoulder1  -0.32718 4.38512 -30.9691
LeftArm  -2.46984 -1.34958 -43.0241
LeftForeArm  30.0658 -12.0754 -7.50206
LeftHand  -0.0577947 9.6616 -0.123125
RightShoulder  -0.829707 -5.79198 29.6332
RightArm  11.6055 13.5421 35.0834
RightForeArm  14.2467 2.81773 6.93788
RightHand  0.017555 2.70835 0.0336057
LeftUpLeg  -11.0598 5.67479 6.45496
LeftLeg  59.1602 -0.0694581 0.419412
LeftFoot  -1.12869 0.490261 -5.42058
LeftToes  -3.37426e-010 -1.91496e-010 5.23909e-011
623
root  -73.4649 39.7073 1.38585 150.072 -85.8915 -156.466
RightUpLeg  -10.6035 -8.29645 0.751301
RightLeg  19.9723 3.02782 1.97456
RightFoot  -1.95915 0.218027 -2.81494
RightToes  -2.9104e-010 0 -3.6325e-017
Spine  4.80917 -1.01802 9.06384
Spine1  6.22266 -0.998184 4.55385
HEad  -25.6086 -34.6441 19.9518
LeftShoulder1  -0.424406 4.6353 -31.3779
LeftArm  1.05582 -1.62686 -42.6323
LeftForeArm  27.5987 -12.692 -8.06095
LeftHand  0.0134873 9.44072 1.71709
RightShoulder  -0.920654 -6.01289 30.1123
RightArm  10.717 18.3293 34.9298
RightForeArm  15.1678 2.00368 6.87678
RightHand  -0.0251777 2.36355 -0.565029
LeftUpLeg  -13.2984 4.20526 5.43124
LeftLeg  57.9117 0.108548 0.713023
LeftFoot  -3.19691 0.39379 -5.25509
LeftToes  -3.37426e-010 -1.91496e-010 5.23909e-011
624
root  -73.9919 39.8946 1.549 167.935 -83.8978 -174.131
RightUpLeg  -9.72538 -8.29354 -0.241202
RightLeg  19.0446 5.52634 2.49333
RightFoot  -1.68655 0.261453 -3.22953
RightToes  -2.9104e-010 0 -3.6325e-017
Spine  4.76016 -0.812128 8.36867
Spine1  6.36495 -0.981319 4.74574
HEad  -24.6304 -35.5192 18.9531
LeftShoulder1  -0.424109 4.63803 -31.2512
LeftArm  2.2544 -1.59275 -43.2996
LeftForeArm  26.6755 -13.1355 -8.05736
LeftHand  0.005053 8.40559 2.00744
RightShoulder  -0.942856 -6.09052 29.8772
RightArm  9.08288 21.4859 35.9562
RightForeArm  14.7652 3.25694 6.34998
RightHand  -0.0427901 2.96482 -0.83909
LeftUpLeg  -14.3629 1.84395 4.05661
LeftLeg  53.3757 0.493039 1.16045
LeftFoot  -4.83807 0.303916 -4.84458
LeftToes  -3.37426e-010 -1.91496e-010 5.23909e-011
